<?xml version="1.0" encoding="UTF-8"?>
<svg id="Layer_2" data-name="Layer 2" xmlns="http://www.w3.org/2000/svg" viewBox="0 0 204.96642 38.75235">
  <defs>
    <style>
      .cls-1 {
        fill: #fff;
      }
    </style>
  </defs>
  <g id="Layer_1-2" data-name="Layer 1">
    <g>
      <path class="cls-1" d="M52.55431,34.62597l8.63477-25.78662h8.20459l8.5957,25.78662h-6.8374l-5.78223-20.66846h-.23486l-5.82129,20.66846h-6.75928ZM57.4381,30.05468v-4.4541h16.44873v4.4541h-16.44873Z"/>
      <path class="cls-1" d="M88.26476,35.17284c-1.84961,0-3.43848-.28027-4.7666-.83984-1.32861-.55957-2.40967-1.33496-3.24316-2.3252-.8335-.98926-1.44531-2.12207-1.83594-3.39844-.39111-1.27637-.58643-2.63086-.58643-4.06348,0-1.4585.19531-2.8457.58643-4.16113.39062-1.31494.99609-2.50049,1.81641-3.55566.8208-1.05469,1.88818-1.88135,3.2041-2.48096,1.31494-.59863,2.89746-.89844,4.74707-.89844,2.18799,0,3.95215.41016,5.29395,1.23047,1.34131.8208,2.27881,1.88232,2.81299,3.18457.53369,1.30273.68408,2.70898.44922,4.21973l-5.46973.42969c.05176-.93799-.0459-1.7124-.29297-2.32471-.24805-.61182-.61914-1.06787-1.11328-1.36768-.49512-.29883-1.09424-.44922-1.79736-.44922-.62549,0-1.17871.11719-1.66064.35156-.48242.23438-.88574.59277-1.21094,1.07471-.32617.48193-.57324,1.08789-.74268,1.81641-.16943.72949-.25391,1.60205-.25391,2.61816,0,1.30273.14941,2.42188.44922,3.35938.29932.93848.75537,1.65527,1.36768,2.14941.61182.49512,1.38672.74219,2.32471.74219.96338,0,1.69287-.23438,2.18799-.70312.49463-.46875.82031-1.06152.97656-1.77734.15625-.7168.18213-1.42676.07812-2.12988l5.82178.27344c.15625,1.14648.10352,2.25977-.15625,3.34082-.26074,1.08105-.76221,2.05078-1.50439,2.91113-.74219.85938-1.73242,1.53711-2.96924,2.03125-1.2373.49414-2.7417.74219-4.5127.74219Z"/>
      <path class="cls-1" d="M99.04796,34.62597V7.27636h6.17285v14.49512c.88525-.46875,1.64697-1.00195,2.28564-1.60156.6377-.59912,1.17871-1.24365,1.62109-1.93408.44336-.68994.80176-1.39307,1.0752-2.10986.27344-.71631.50098-1.42627.68359-2.12939h7.2666c-.28613,1.04199-.69629,2.05127-1.23047,3.02783-.53418.97705-1.19141,1.88916-1.97266,2.73535-.78125.84668-1.6875,1.6084-2.71582,2.28564-1.0293.67725-2.16797,1.2373-3.41895,1.67969v.3125c1.61523-.25977,2.93652-.29297,3.96582-.09766s1.84277.56055,2.44238,1.09424c.59863.53418,1.06055,1.20508,1.38672,2.01172.3252.80762.5791,1.70703.76172,2.69629l.89844,4.88379h-6.83691l-.42969-3.43848c-.10449-.83301-.24805-1.61426-.42969-2.34375-.18262-.72949-.53418-1.32227-1.05469-1.77832-.52148-.45508-1.3418-.68359-2.46191-.68359h-1.83643v8.24414h-6.17285Z"/>
      <path class="cls-1" d="M132.2965,35.09472c-1.66797,0-3.15918-.16992-4.47363-.50781-1.31543-.33789-2.40332-.86523-3.2627-1.58203s-1.50391-1.60254-1.93359-2.65723c-.43066-1.05469-.60645-2.27246-.52832-3.65332l3.2041-.70312c-.07812,1.38086.15625,2.52734.70312,3.43848.54688.91211,1.37402,1.58887,2.48145,2.03125,1.10645.44336,2.42871.66406,3.96582.66406,1.48438,0,2.72754-.18164,3.73047-.54688,1.00293-.36426,1.76465-.87207,2.28613-1.52344.52051-.65039.78125-1.39355.78125-2.22656,0-.93848-.30664-1.67383-.91797-2.20801-.6123-.53369-1.41992-.96338-2.42285-1.28906s-2.10352-.60596-3.30078-.84033c-1.22461-.25977-2.43652-.55957-3.63379-.89844-1.19824-.33838-2.2793-.78174-3.24316-1.32861s-1.73242-1.25635-2.30469-2.12939c-.57324-.87207-.85938-1.97314-.85938-3.30127,0-1.56299.39062-2.89746,1.17188-4.00488.78125-1.10693,1.86816-1.95947,3.2627-2.55908,1.39258-.59863,3.02734-.89844,4.90332-.89844,1.90039,0,3.58691.29297,5.05957.87891,1.4707.58594,2.63672,1.45215,3.49609,2.59814.86035,1.14648,1.31543,2.57861,1.36816,4.29785l-3.36035.78125c0-.9375-.15625-1.75146-.46875-2.44189-.3125-.68945-.76172-1.27588-1.34766-1.75781-.58691-.48193-1.2832-.84033-2.09082-1.07471s-1.70605-.35156-2.69531-.35156c-1.14648,0-2.16309.18262-3.04785.54688-.88574.36523-1.57617.85986-2.07129,1.48486s-.74219,1.36719-.74219,2.22705c0,1.04199.3584,1.84961,1.0752,2.42236.71582.57324,1.64648,1.0293,2.79297,1.36719,1.14648.33887,2.37012.65137,3.67285.93799,1.11914.23438,2.2207.52148,3.30176.85938,1.08008.33887,2.06348.76221,2.94922,1.27002s1.58887,1.20508,2.11035,2.09033c.52051.88574.78125,1.99219.78125,3.32129,0,1.43262-.38477,2.70215-1.15234,3.80859-.76855,1.10742-1.92188,1.96094-3.45801,2.55957-1.53711.59863-3.46484.89844-5.78223.89844Z"/>
      <path class="cls-1" d="M148.08068,10.91015c-.80762,0-1.42578-.17578-1.85547-.52734-.42969-.35205-.64453-.85303-.64453-1.50439,0-.67725.20801-1.18506.625-1.52393.41602-.33789,1.04102-.50781,1.875-.50781.80664,0,1.42578.16992,1.85547.50781.43066.33887.64551.85986.64551,1.56299,0,.65137-.21484,1.14648-.64551,1.48486-.42969.33838-1.04883.50781-1.85547.50781ZM146.32286,34.62597V14.42626h3.55469v20.19971h-3.55469Z"/>
      <path class="cls-1" d="M161.13048,35.01659c-1.84961,0-3.23047-.50781-4.1416-1.52344-.91211-1.01562-1.36719-2.5791-1.36719-4.68848v-11.40869h-3.00879l.03906-2.93066h1.87598c.625-.05176,1.09375-.18848,1.40625-.41016.3125-.2207.50781-.60547.58594-1.15234l.35156-3.00879h2.18848v4.53223h5.82129v3.00879h-5.82129v11.33057c0,1.01562.24707,1.76465.74219,2.24609.49414.48242,1.17188.72266,2.03125.72266.52051,0,1.04199-.07129,1.5625-.21484.52148-.14258,1.05566-.41016,1.60254-.80078v3.55566c-.75586.28711-1.45898.48145-2.11035.58594-.65137.10352-1.2373.15625-1.75781.15625Z"/>
      <path class="cls-1" d="M176.8756,35.09472c-1.58984,0-2.98926-.23438-4.2002-.70312-1.21191-.46875-2.23438-1.15234-3.06738-2.05078-.83398-.89941-1.45898-1.97949-1.875-3.24316-.41699-1.26367-.62598-2.67676-.62598-4.23926,0-1.58838.21484-3.04785.64551-4.37598.42969-1.32861,1.03516-2.48096,1.81641-3.45801.78125-.97656,1.76465-1.73828,2.9502-2.28564,1.18457-.54688,2.53223-.82031,4.04297-.82031,1.35449,0,2.57227.22852,3.65332.68359,1.08105.45605,2.00586,1.14014,2.77441,2.05127.76758.91211,1.34766,2.06494,1.73828,3.45801.39062,1.39355.54688,3.02783.46875,4.90332l-15.8623.11719v-2.3833l13.6748-.15625-1.17188,1.64111c.12988-1.61475-.02637-2.96289-.46973-4.04395-.44238-1.08057-1.08105-1.89502-1.91406-2.44189-.83398-.54688-1.79688-.8208-2.8916-.8208-1.22461,0-2.2793.31299-3.16406.93799-.88574.625-1.57617,1.52344-2.07129,2.6958-.49512,1.17188-.74219,2.59229-.74219,4.25879,0,2.39648.53418,4.22656,1.60254,5.48926,1.06738,1.26367,2.64258,1.89453,4.72754,1.89453.83301,0,1.55566-.09766,2.16797-.29297.61133-.19531,1.13281-.46191,1.5625-.80078.42969-.33789.78809-.74219,1.0752-1.21094.28613-.46875.49414-.97656.625-1.52344l3.125.70312c-.26074.9375-.625,1.77734-1.09375,2.51953-.46875.74316-1.06152,1.375-1.77734,1.89551-.7168.52148-1.54395.91797-2.48145,1.19141s-2.01855.41016-3.24219.41016Z"/>
      <path class="cls-1" d="M196.56603,35.09472c-1.40625,0-2.65039-.15039-3.73145-.44922s-1.99219-.72266-2.73438-1.26953-1.30273-1.20508-1.67969-1.97363c-.37793-.76758-.59277-1.62109-.64551-2.55859l3.00879-.82031c-.05273.85938.15625,1.6084.625,2.24609.46875.63867,1.16602,1.12695,2.09082,1.46484.92383.33887,2.02441.50781,3.30078.50781,1.51074,0,2.68945-.25977,3.53613-.78125.84668-.52051,1.26953-1.23633,1.26953-2.14844,0-.70312-.22754-1.25684-.68359-1.66016-.45605-.4043-1.10742-.73633-1.95312-.99707-.84668-.25977-1.81738-.49414-2.91113-.70312-.96387-.20801-1.9082-.44238-2.83203-.70312-.92578-.26025-1.77246-.60547-2.54004-1.03516-.76855-.43018-1.38672-.99658-1.85547-1.69971-.46875-.70361-.7041-1.57568-.7041-2.61768,0-1.25049.31934-2.31152.95801-3.18457.6377-.87207,1.5625-1.55615,2.77344-2.05127,1.21191-.49414,2.65039-.74219,4.31738-.74219s3.08691.25391,4.25879.76172c1.17188.5083,2.09668,1.21826,2.77441,2.12939.67676.91211,1.05469,1.97998,1.13281,3.2041l-3.04785.82031c-.02637-.91162-.26758-1.66064-.72266-2.24658-.45605-.58594-1.06152-1.02881-1.81641-1.32812-.75586-.29932-1.6543-.44971-2.69629-.44971-1.40625,0-2.50684.26074-3.30176.78174-.79395.521-1.19141,1.22461-1.19141,2.10986,0,.70312.24121,1.26367.72266,1.67969.48242.41699,1.13379.74268,1.9541.97705s1.73828.45605,2.75391.66406c1.04199.23438,2.03809.48242,2.98926.74219.9502.26074,1.79688.59961,2.54004,1.01611.74219.41699,1.33398.9707,1.77734,1.66016.44238.69043.66406,1.56934.66406,2.6377,0,1.32812-.3457,2.44824-1.03516,3.36035-.69043.91113-1.66699,1.58203-2.93066,2.01172s-2.74121.64453-4.43457.64453Z"/>
    </g>
    <path class="cls-1" d="M34.46025,33.67394l9.09711-24.22028c-1.83752-2.48456-3.82355-4.87115-6.0166-6.97723-1.85016-1.77686-4.68323-2.99011-7.22504-2.26099-.95685.27454-2.20575,2.11206-.92767,1.86365,3.29498-.64056,6.93427-.32599,7.47192,1.64532.5376,1.97125-.2019,3.62909-.8974,5.25873-1.09955,2.57623-2.97754,4.46771-4.84491,6.28302-.92865.90271-2.25519,1.57184-3.09741,2.0274-.84216.45557-1.87256.21576-2.22241.73499-.34985.51929.0434.1181.31885.31677.27539.19867.7323.64386,1.23682.60144.50452-.04248.75354-.46399,1.25562-.83417.82745-.61005,1.68744-.30157,2.31061-.61115.37128-.18439.32721-.48975.41895-.83508.05127-.19293.17822-.33099.29126-.4834.09894-.13336.27887-.2312.45227-.18359.12415.03412.2373.27344.37.1864.14502-.09503.19232-.43188.2149-.58246.04236-.28296.1275-.54797.23596-.81036.15027-.36346.41071-.56323.81268-.4718.18774.04272.36914.16217.5274-.00256.14221-.14801.11133-.27924.13116-.46771.02435-.23132.03107-.49164.09863-.71259.04938-.16144.09705-.3017.20294-.44305.10706-.14276.20801-.1825.38031-.23474.28778-.08716.76788-.09546.90869-.41266.07465-.16815.09235-.32867.10303-.50916.01172-.19714.09296-.38293.12695-.57697.07758-.44214.22852-.85535.427-1.26141.12933-.26453.29474-.50983.43292-.76855.05743-.10748.11017-.21045.17865-.30957.13373-.19342.28577-.36115.38959-.57513.07861-.16199.13525-.33337.21185-.49615.19366-.41174.53943-.61823.97546-.71893,1.12634-.26001,2.85095,1.04401,3.20715,2.23859.76013,2.54944-1.97131,2.97638-3.34875,3.9624-2.69061,1.92609,1.81738,2.60266.0351,4.42432s-4.90735,1.15027-6.99512,2.00049c-2.08783.85016-2.84125,3.55438-5.09442,3.44098s-.94983-2.74249-2.10602-3.97192-2.91803-.60547-4.31274-.14313c-3.32745,1.10309-6.28149,1.65259-9.80798,1.46692-1.57715-.08307-3.62305-1.11707-5.12073-.22296-.64349.38416-.00391.69928.5246,1.00299.52856.30371,1.77997.2323,2.01245,1.20648.23248.97412-.6701,1.62439-1.6701,1.55756-1-.06677-1.98181-.45312-2.94989-.64093-.96802-.18787-1.71741-.73651-2.75128-.61194-1.03387.12463.0321,1.33508.63983,1.74207,1.90771,1.27771,3.94312,2.57153,6.1402,3.48193,7.71326,3.19611,15.2793,5.47632,23.66913,5.82977,1.20203.05066,2.39307.07806,3.57849.07837Z"/>
    <path class="cls-1" d="M49.29519,3.59154h6.58324l-13.24658,35.16081h-6.543L49.29519,3.59154Z"/>
  </g>
</svg>