<?xml version="1.0" encoding="UTF-8"?>
<svg id="Layer_2" data-name="Layer 2" xmlns="http://www.w3.org/2000/svg" viewBox="0 0 51.61651 33.6753">
  <defs>
    <style>
      .cls-1 {
        fill: #ffffff;
      }
    </style>
  </defs>
  <g id="Layer_1-2" data-name="Layer 1">
    <path class="cls-1" d="M30.31573.21545c2.54179-.72914,5.37486.48411,7.22506,2.26096,3.25748,3.12834,6.09025,6.85307,8.59501,10.64297,2.05275,3.10599,3.65428,6.5062,4.77473,10.04949.68643,2.17074,1.23051,4.20685-.15603,6.19566-1.38654,1.98883-3.81483,3.03249-6.12575,3.45433-4.6114.84177-9.09871.97251-13.74695.77668-8.38988-.35346-15.95587-2.63364-23.66914-5.82975-2.19707-.91039-4.23248-2.20421-6.14021-3.48191-.6077-.40703-1.67373-1.61746-.63984-1.74207,1.03387-.1246,1.78326.42406,2.75132.61188s1.94986.57416,2.94988.64098,1.90257-.58347,1.6701-1.5576c-.23246-.97413-1.48391-.90275-2.01244-1.20647s-1.1681-.61879-.52463-1.00295c1.49769-.89415,3.54357.13986,5.12072.22291,3.52652.1857,6.48054-.36378,9.80802-1.46689,1.39471-.46237,3.15656-1.0863,4.31275.14313,1.15619,1.22943-.14719,3.85852,2.10598,3.9719,2.25318.11339,3.00663-2.5908,5.09441-3.44098,2.08779-.85018,5.21287-.17884,6.99517-2.00049,1.78228-1.82165-2.72574-2.49819-.03514-4.42427,1.37745-.98605,4.10887-1.41299,3.34876-3.96242-.35618-1.19456-2.0808-2.49863-3.20711-2.23859-.43606.10068-.78182.30717-.9755.7189-.07659.16281-.1332.33423-.21181.49618-.10386.21397-.25588.38174-.3896.57514-.06852.09911-.12122.20211-.17864.30958-.13823.25872-.30364.50399-.43294.76852-.1985.40607-.34941.81931-.42698,1.26145-.03404.19403-.11529.37977-.12697.57696-.01069.18049-.02838.34098-.10305.50917-.14082.31716-.62087.32545-.90869.41266-.1723.05221-.27326.09193-.38028.23472-.10592.14133-.15359.2816-.20295.44305-.06756.22097-.07428.48128-.09865.71259-.01986.18844.01106.31968-.13116.46771-.15828.16474-.33966.04527-.52738.00258-.40202-.09142-.66246.10832-.81271.47182-.10843.26234-.19358.52737-.23597.81032-.02256.15059-.06987.48745-.21488.5825-.1327.08698-.24584-.15231-.37003-.18642-.1734-.04762-.35332.05022-.45224.1836-.11303.1524-.24001.29042-.29127.48338-.09175.34535-.04767.65069-.41893.8351-.62319.30955-1.48313.00107-2.31061.61114-.5021.37018-.75109.79166-1.25561.83412-.50451.04245-.96142-.40273-1.23684-.60141-.27543-.19869-.6687.20249-.31883-.31675.34985-.51923,1.38026-.27947,2.22244-.73502s2.16871-1.12467,3.09739-2.02741c1.86739-1.81526,3.74535-3.70676,4.84491-6.28301.69551-1.6296,1.435-3.28745.89738-5.25874-.53762-1.97128-4.17696-2.28583-7.47192-1.64533-1.27808.24845-.02919-1.58911.92768-1.8636Z"/>
  </g>
</svg>
